<svg width="58" height="60" viewBox="0 0 58 60" fill="none" xmlns="http://www.w3.org/2000/svg">
<path d="M23.0351 14L28.9807 0.126929L34.9263 14L28.9807 27.8731L23.0351 14Z" fill="url(#paint0_linear_606_3)" stroke="#FEEBEB" stroke-width="0.1"/>
<path d="M23.0351 46L28.9807 59.8731L34.9263 46L28.9807 32.1269L23.0351 46Z" fill="url(#paint1_linear_606_3)" stroke="#FEEBEB" stroke-width="0.1"/>
<path d="M12.1516 27.1489L3.10992 15.0634L18.0972 16.8509L27.1388 28.9364L12.1516 27.1489Z" fill="url(#paint2_linear_606_3)" stroke="#FEEBEB" stroke-width="0.1"/>
<path d="M39.8644 43.1489L54.8516 44.9364L45.81 32.8509L30.8228 31.0634L39.8644 43.1489Z" fill="url(#paint3_linear_606_3)" stroke="#FEEBEB" stroke-width="0.1"/>
<path d="M45.81 27.1489L54.8516 15.0634L39.8644 16.8509L30.8228 28.9364L45.81 27.1489Z" fill="url(#paint4_linear_606_3)" stroke="#FEEBEB" stroke-width="0.1"/>
<path d="M18.0972 43.1489L3.10992 44.9364L12.1516 32.8509L27.1388 31.0634L18.0972 43.1489Z" fill="url(#paint5_linear_606_3)" stroke="#FEEBEB" stroke-width="0.1"/>
<defs>
<linearGradient id="paint0_linear_606_3" x1="28.9807" y1="0" x2="28.9807" y2="28" gradientUnits="userSpaceOnUse">
<stop stop-color="#FFA600"/>
<stop offset="0.502304" stop-color="#FFAE74" stop-opacity="0.464531"/>
<stop offset="1" stop-color="#FDFFC1" stop-opacity="0"/>
</linearGradient>
<linearGradient id="paint1_linear_606_3" x1="28.9807" y1="60" x2="28.9807" y2="32" gradientUnits="userSpaceOnUse">
<stop stop-color="#FFA600"/>
<stop offset="0.502304" stop-color="#FFAE74" stop-opacity="0.464531"/>
<stop offset="1" stop-color="#FDFFC1" stop-opacity="0"/>
</linearGradient>
<linearGradient id="paint2_linear_606_3" x1="3" y1="14.9999" x2="27.2487" y2="28.9999" gradientUnits="userSpaceOnUse">
<stop stop-color="#FFA600"/>
<stop offset="0.502304" stop-color="#FFAE74" stop-opacity="0.464531"/>
<stop offset="1" stop-color="#FDFFC1" stop-opacity="0"/>
</linearGradient>
<linearGradient id="paint3_linear_606_3" x1="54.9615" y1="44.9999" x2="30.7128" y2="30.9999" gradientUnits="userSpaceOnUse">
<stop stop-color="#FFA600"/>
<stop offset="0.502304" stop-color="#FFAE74" stop-opacity="0.464531"/>
<stop offset="1" stop-color="#FDFFC1" stop-opacity="0"/>
</linearGradient>
<linearGradient id="paint4_linear_606_3" x1="54.9615" y1="14.9999" x2="30.7128" y2="28.9999" gradientUnits="userSpaceOnUse">
<stop stop-color="#FFA600"/>
<stop offset="0.502304" stop-color="#FFAE74" stop-opacity="0.464531"/>
<stop offset="1" stop-color="#FDFFC1" stop-opacity="0"/>
</linearGradient>
<linearGradient id="paint5_linear_606_3" x1="3" y1="44.9999" x2="27.2487" y2="30.9999" gradientUnits="userSpaceOnUse">
<stop stop-color="#FFA600"/>
<stop offset="0.502304" stop-color="#FFAE74" stop-opacity="0.464531"/>
<stop offset="1" stop-color="#FDFFC1" stop-opacity="0"/>
</linearGradient>
</defs>
</svg>
